<svg width="200" height="210" viewBox="0 0 200 210" xmlns="http://www.w3.org/2000/svg">
  <defs>
    <linearGradient id="psnPin" x1="0" y1="0" x2="0" y2="1">
      <stop offset="50%" stop-color="#CC092F"/>
      <stop offset="50%" stop-color="#0A0A0A"/>
    </linearGradient>
  </defs>
  <path d="M52 86 C40 50 70 26 104 32" stroke="#CC092F" stroke-width="7" fill="none" stroke-linecap="round"/>
  <path d="M150 96 C168 134 140 168 112 182" stroke="#0A0A0A" stroke-width="7" fill="none" stroke-linecap="round"/>
  <circle cx="108" cy="30" r="11" fill="#CC092F"/><circle cx="108" cy="30" r="5" fill="#FFCB00"/>
  <circle cx="48" cy="90" r="11" fill="#CC092F"/><circle cx="48" cy="90" r="5" fill="#FFCB00"/>
  <circle cx="154" cy="98" r="11" fill="#0A0A0A"/><circle cx="154" cy="98" r="5" fill="#FFCB00"/>
  <path d="M100 26 C63 26 34 55 34 92 C34 132 100 192 100 192 C100 192 166 132 166 92 C166 55 137 26 100 26 Z" fill="url(#psnPin)"/>
  <rect x="87" y="50" width="26" height="74" rx="3" fill="#fff"/>
  <rect x="63" y="74" width="74" height="26" rx="3" fill="#fff"/>
</svg>
